<?xml version="1.0" encoding="utf-8"?>
<!-- Generator: Adobe Illustrator 27.6.1, SVG Export Plug-In . SVG Version: 6.00 Build 0)  -->
<svg version="1.1" id="Layer_1" xmlns="http://www.w3.org/2000/svg" xmlns:xlink="http://www.w3.org/1999/xlink" x="0px" y="0px"
	 viewBox="0 0 760.2 121.9" style="enable-background:new 0 0 760.2 121.9;" xml:space="preserve">
<style type="text/css">
	.st0{fill:#FFFFFF;}
</style>
<g>
	<g>
		<path class="st0" d="M15.4,75.3c-0.9,0-1.6-0.7-1.6-1.6v-61h66.7c0.9,0,1.6,0.7,1.6,1.6s-0.7,1.6-1.6,1.6H17v57.9
			C17,74.6,16.3,75.3,15.4,75.3z"/>
	</g>
	<g>
		<path class="st0" d="M165.9,15.8H95.7c-0.9,0-1.6-0.7-1.6-1.6s0.7-1.6,1.6-1.6H166c0.9,0,1.6,0.7,1.6,1.6S166.8,15.8,165.9,15.8z"
			/>
	</g>
	<g>
		<path class="st0" d="M372.1,15.8h-70.3c-0.9,0-1.6-0.7-1.6-1.6s0.7-1.6,1.6-1.6h70.3c0.9,0,1.6,0.7,1.6,1.6S373,15.8,372.1,15.8z"
			/>
	</g>
	<g>
		<path class="st0" d="M520.6,62.5h-67.3c-0.9,0-1.6-0.7-1.6-1.6c0-0.9,0.7-1.6,1.6-1.6h67.3c0.9,0,1.6,0.7,1.6,1.6
			C522.2,61.8,521.5,62.5,520.6,62.5z"/>
	</g>
	<g>
		<path class="st0" d="M603.8,65.3h-43.5c-0.7,0-1.3-0.6-1.3-1.3c0-0.7,0.6-1.3,1.3-1.3h43.5c0.7,0,1.3,0.6,1.3,1.3
			C605.1,64.8,604.5,65.3,603.8,65.3z"/>
	</g>
	<g>
		<path class="st0" d="M65.2,62.4H15.4c-0.9,0-1.6-0.7-1.6-1.6c0-0.9,0.7-1.6,1.6-1.6h49.7c0.9,0,1.6,0.7,1.6,1.6S66,62.4,65.2,62.4
			z"/>
	</g>
	<g>
		<path class="st0" d="M80.6,109.2H13.9V88.1c0-0.9,0.7-1.6,1.6-1.6c0.9,0,1.6,0.7,1.6,1.6v18h63.6c0.9,0,1.6,0.7,1.6,1.6
			C82.1,108.5,81.4,109.2,80.6,109.2z"/>
	</g>
	<g>
		<path class="st0" d="M130.8,109.2c-0.9,0-1.6-0.7-1.6-1.6V14.3c0-0.9,0.7-1.6,1.6-1.6s1.6,0.7,1.6,1.6v93.4
			C132.4,108.5,131.7,109.2,130.8,109.2z"/>
	</g>
	<g>
		<path class="st0" d="M337,86.8c-0.9,0-1.6-0.7-1.6-1.6v-71c0-0.9,0.7-1.6,1.6-1.6s1.6,0.7,1.6,1.6v71
			C338.6,86.1,337.9,86.8,337,86.8z"/>
	</g>
	<g>
		<path class="st0" d="M337,109.2c-0.9,0-1.6-0.7-1.6-1.6v-9c0-0.9,0.7-1.6,1.6-1.6s1.6,0.7,1.6,1.6v9
			C338.6,108.5,337.9,109.2,337,109.2z"/>
	</g>
	<g>
		<path class="st0" d="M644.3,109.2c-0.9,0-1.6-0.7-1.6-1.6V33.2c0-0.9,0.7-1.6,1.6-1.6s1.6,0.7,1.6,1.6v74.5
			C645.9,108.5,645.2,109.2,644.3,109.2z"/>
	</g>
	<g>
		<path class="st0" d="M644.3,24.8c-0.9,0-1.6-0.7-1.6-1.6v-9c0-0.9,0.7-1.6,1.6-1.6s1.6,0.7,1.6,1.6v9
			C645.9,24.1,645.2,24.8,644.3,24.8z"/>
	</g>
	<g>
		<path class="st0" d="M280.8,109.2c-0.9,0-1.6-0.7-1.6-1.6V14.3c0-0.9,0.7-1.6,1.6-1.6s1.6,0.7,1.6,1.6v93.4
			C282.4,108.5,281.7,109.2,280.8,109.2z"/>
	</g>
	<g>
		<path class="st0" d="M453.3,109.2c-0.9,0-1.6-0.7-1.6-1.6V14.3c0-0.9,0.7-1.6,1.6-1.6s1.6,0.7,1.6,1.6v93.4
			C454.9,108.5,454.2,109.2,453.3,109.2z"/>
	</g>
	<g>
		<path class="st0" d="M676.4,109.2c-0.9,0-1.6-0.7-1.6-1.6V12.7H720c0.4,0,11.4,0,19.3,8.6c7.9,8.6,7.1,18.1,7,18.5
			c-0.1,0.6-1.7,13.6-12.7,18.5c-9.7,4.3-13,4.3-21.9,4.2c-0.9,0-2,0-3.1,0h-30.7v45.1C677.9,108.5,677.2,109.2,676.4,109.2z
			 M677.9,59.4h30.7c1.1,0,2.1,0,3.1,0c8.9,0,11.6,0.1,20.6-4c9.4-4.2,10.9-15.9,10.9-16s0.7-8.5-6.2-16c-6.9-7.6-16.8-7.6-17-7.6
			h-42.1V59.4z"/>
	</g>
	<g>
		<path class="st0" d="M540.8,109.2c-0.2,0-0.4,0-0.6-0.1c-0.8-0.3-1.2-1.3-0.8-2.1l40.7-93.4c0.3-0.8,1.3-1.2,2.1-0.8
			c0.8,0.3,1.1,1.3,0.8,2.1l-40.7,93.4C542,108.9,541.4,109.2,540.8,109.2z"/>
	</g>
	<g>
		<path class="st0" d="M520.8,109.2c-0.9,0-1.6-0.7-1.6-1.6V14.3c0-0.9,0.7-1.6,1.6-1.6c0.9,0,1.6,0.7,1.6,1.6v93.4
			C522.4,108.5,521.7,109.2,520.8,109.2z"/>
	</g>
	<g>
		<path class="st0" d="M185.8,109.2c-0.9,0-1.6-0.7-1.6-1.6V12.7h42.1c0.6,0,5.8,0.1,8.4,1c0.8,0.3,1.2,1.2,0.9,2s-1.2,1.2-2,0.9
			c-1.7-0.6-5.8-0.8-7.3-0.8h-39v91.8C187.4,108.5,186.7,109.2,185.8,109.2z"/>
	</g>
	<g>
		<path class="st0" d="M230.1,62.5h-44.2c-0.9,0-1.6-0.7-1.6-1.6c0-0.9,0.7-1.6,1.6-1.6h44.2c11.8,0,21.9-11.5,21.9-20.9
			c0-11.1-8.2-17.1-8.2-17.1c-0.7-0.5-0.9-1.5-0.4-2.2s1.5-0.9,2.2-0.4c0.4,0.3,9.6,6.9,9.6,19.7c0,6-3,12.2-8.3,16.9
			C242,59.9,235.7,62.5,230.1,62.5z"/>
	</g>
	<g>
		<path class="st0" d="M253.6,109.2c-0.7,0-1.4-0.5-1.5-1.2c0-0.1-2.4-11-9.6-26.1c-7.1-14.9-15.8-19.5-15.9-19.5
			c-0.8-0.4-1.1-1.3-0.7-2.1c0.4-0.8,1.3-1.1,2.1-0.7c0.4,0.2,9.7,5.1,17.3,20.9c7.4,15.5,9.8,26.4,9.9,26.8
			c0.2,0.8-0.4,1.7-1.2,1.8C253.8,109.2,253.7,109.2,253.6,109.2z"/>
	</g>
	<g>
		<path class="st0" d="M623.3,109.2c-0.6,0-1.2-0.3-1.4-0.9l-41.8-93.4c-0.4-0.8,0-1.7,0.8-2.1c0.8-0.4,1.7,0,2.1,0.8l41.8,93.4
			c0.4,0.8,0,1.7-0.8,2.1C623.7,109.2,623.5,109.2,623.3,109.2z"/>
	</g>
	<g>
		<path class="st0" d="M739.3,92.6c-0.6,0-1.2-0.4-1.5-1c-9.5-25.4-21-29.1-21.1-29.2c-0.8-0.2-1.3-1.1-1-1.9
			c0.2-0.8,1.1-1.3,1.9-1.1c0.5,0.1,13,4,23.1,31.1c0.3,0.8-0.1,1.7-0.9,2C739.6,92.6,739.4,92.6,739.3,92.6z"/>
	</g>
	<g>
		<path class="st0" d="M744.8,109.2c-0.7,0-1.3-0.4-1.5-1.1l-2.4-7.3c-0.3-0.8,0.2-1.7,1-2s1.7,0.2,2,1l2.4,7.3c0.3,0.8-0.2,1.7-1,2
			C745.1,109.2,745,109.2,744.8,109.2z"/>
	</g>
</g>
</svg>
